<svg width="186" height="65" viewBox="0 0 186 65" fill="none" xmlns="http://www.w3.org/2000/svg">
<path d="M71.5312 51H64.2656V22.7812H54.9609V16.7344H80.8359V22.7812H71.5312V51ZM94.1222 37.8516C94.1222 40.4453 94.5441 42.4062 95.3878 43.7344C96.2472 45.0625 97.6378 45.7266 99.5597 45.7266C101.466 45.7266 102.833 45.0703 103.661 43.7578C104.505 42.4297 104.927 40.4609 104.927 37.8516C104.927 35.2578 104.505 33.3125 103.661 32.0156C102.818 30.7188 101.435 30.0703 99.5128 30.0703C97.6066 30.0703 96.2316 30.7188 95.3878 32.0156C94.5441 33.2969 94.1222 35.2422 94.1222 37.8516ZM112.239 37.8516C112.239 42.1172 111.114 45.4531 108.864 47.8594C106.614 50.2656 103.482 51.4688 99.4659 51.4688C96.9503 51.4688 94.7316 50.9219 92.8097 49.8281C90.8878 48.7188 89.4113 47.1328 88.38 45.0703C87.3488 43.0078 86.8331 40.6016 86.8331 37.8516C86.8331 33.5703 87.9503 30.2422 90.1847 27.8672C92.4191 25.4922 95.5597 24.3047 99.6066 24.3047C102.122 24.3047 104.341 24.8516 106.263 25.9453C108.185 27.0391 109.661 28.6094 110.693 30.6562C111.724 32.7031 112.239 35.1016 112.239 37.8516ZM150.018 33.5391C150.018 39.1797 148.408 43.5 145.19 46.5C141.987 49.5 137.354 51 131.291 51H121.588V16.7344H132.346C137.94 16.7344 142.283 18.2109 145.377 21.1641C148.471 24.1172 150.018 28.2422 150.018 33.5391ZM142.471 33.7266C142.471 26.3672 139.221 22.6875 132.721 22.6875H128.854V45H131.971C138.971 45 142.471 41.2422 142.471 33.7266ZM165.132 37.8516C165.132 40.4453 165.554 42.4062 166.398 43.7344C167.257 45.0625 168.648 45.7266 170.57 45.7266C172.476 45.7266 173.843 45.0703 174.671 43.7578C175.515 42.4297 175.937 40.4609 175.937 37.8516C175.937 35.2578 175.515 33.3125 174.671 32.0156C173.827 30.7188 172.445 30.0703 170.523 30.0703C168.617 30.0703 167.242 30.7188 166.398 32.0156C165.554 33.2969 165.132 35.2422 165.132 37.8516ZM183.249 37.8516C183.249 42.1172 182.124 45.4531 179.874 47.8594C177.624 50.2656 174.492 51.4688 170.476 51.4688C167.96 51.4688 165.742 50.9219 163.82 49.8281C161.898 48.7188 160.421 47.1328 159.39 45.0703C158.359 43.0078 157.843 40.6016 157.843 37.8516C157.843 33.5703 158.96 30.2422 161.195 27.8672C163.429 25.4922 166.57 24.3047 170.617 24.3047C173.132 24.3047 175.351 24.8516 177.273 25.9453C179.195 27.0391 180.671 28.6094 181.702 30.6562C182.734 32.7031 183.249 35.1016 183.249 37.8516Z" fill="#2C2C2C"/>
<path d="M12 16.5H28C33.2467 16.5 37.5 20.7533 37.5 26V42C37.5 47.2467 33.2467 51.5 28 51.5H12C6.7533 51.5 2.5 47.2467 2.5 42V26C2.5 20.7533 6.7533 16.5 12 16.5Z" stroke="#279AF1" stroke-width="5"/>
<rect x="14.3787" y="41.5564" width="37.9909" height="8" transform="rotate(-45 14.3787 41.5564)" fill="#279AF1" stroke="white" stroke-width="3"/>
<rect x="10.9755" y="28.9399" width="16.4281" height="5" transform="rotate(45 10.9755 28.9399)" fill="#279AF1"/>
</svg>
