<svg width="240" height="71" viewBox="0 0 240 71" fill="none" xmlns="http://www.w3.org/2000/svg">
<rect width="240" height="71" rx="11" fill="#279AF1"/>
<path d="M91.8181 55H84.2497V25.6055H74.5573V19.3066H101.51V25.6055H91.8181V55ZM142.401 37.1045C142.401 43.0127 140.936 47.5537 138.007 50.7275C135.077 53.9014 130.878 55.4883 125.409 55.4883C119.94 55.4883 115.741 53.9014 112.811 50.7275C109.882 47.5537 108.417 42.9964 108.417 37.0557C108.417 31.1149 109.882 26.582 112.811 23.457C115.757 20.3158 119.973 18.7451 125.458 18.7451C130.943 18.7451 135.134 20.3239 138.031 23.4814C140.944 26.639 142.401 31.18 142.401 37.1045ZM116.351 37.1045C116.351 41.0921 117.108 44.0951 118.622 46.1133C120.135 48.1315 122.398 49.1406 125.409 49.1406C131.447 49.1406 134.466 45.1286 134.466 37.1045C134.466 29.0641 131.464 25.0439 125.458 25.0439C122.447 25.0439 120.176 26.0612 118.646 28.0957C117.116 30.1139 116.351 33.1169 116.351 37.1045ZM182.413 36.8115C182.413 42.6872 180.736 47.1875 177.383 50.3125C174.047 53.4375 169.221 55 162.906 55H152.799V19.3066H164.005C169.831 19.3066 174.356 20.8447 177.579 23.9209C180.801 26.9971 182.413 31.2939 182.413 36.8115ZM174.551 37.0068C174.551 29.3408 171.166 25.5078 164.395 25.5078H160.367V48.75H163.614C170.906 48.75 174.551 44.8356 174.551 37.0068ZM225.208 37.1045C225.208 43.0127 223.743 47.5537 220.813 50.7275C217.883 53.9014 213.684 55.4883 208.216 55.4883C202.747 55.4883 198.548 53.9014 195.618 50.7275C192.688 47.5537 191.223 42.9964 191.223 37.0557C191.223 31.1149 192.688 26.582 195.618 23.457C198.564 20.3158 202.779 18.7451 208.264 18.7451C213.749 18.7451 217.94 20.3239 220.838 23.4814C223.751 26.639 225.208 31.18 225.208 37.1045ZM199.158 37.1045C199.158 41.0921 199.915 44.0951 201.428 46.1133C202.942 48.1315 205.204 49.1406 208.216 49.1406C214.254 49.1406 217.273 45.1286 217.273 37.1045C217.273 29.0641 214.27 25.0439 208.264 25.0439C205.253 25.0439 202.983 26.0612 201.453 28.0957C199.923 30.1139 199.158 33.1169 199.158 37.1045Z" fill="white"/>
<rect x="21.249" y="47.8054" width="40.3848" height="10.4641" transform="rotate(-45 21.249 47.8054)" fill="white"/>
<rect x="19.7881" y="30.7684" width="23.5441" height="11.014" transform="rotate(45 19.7881 30.7684)" fill="white"/>
</svg>
